# xmcd
#
# Track frame offsets: 
#        150
#        9862
#        35487
#        60315
#        72575
#        86615
#        104982
#        120640
#        129690
#        145560
#        161485
#        171645
#        193965
#        223135
#        250410
#
# Disc length: 3400 seconds
#
# Revision: 0
# Processed by: cddbd v1.4PL0 Copyright (c) Steve Scherf et al.
# Submitted via: ExactAudioCopy v0.90b4
#
DISCID=e40d460f
DTITLE=Bill Schaeffer - Piano Sole
DYEAR=1997
DGENRE=Blues
TTITLE0=Up and Over Blues
TTITLE1=Homecoming
TTITLE2=Dark Song
TTITLE3=Grandmother Song
TTITLE4=Crank Out a Boogie
TTITLE5=Memories
TTITLE6=Baddad Boogie
TTITLE7=Who's Minding the Baby Now?
TTITLE8=Moonbeams
TTITLE9=Zydeco Psychosis
TTITLE10=When Will I see You Again?
TTITLE11=The Meaning of Life (in four parts)
TTITLE12=Tears for Vincent
TTITLE13=Pendragon
TTITLE14=Dad's Boogie
EXTD=
EXTT0=
EXTT1=
EXTT2=
EXTT3=
EXTT4=
EXTT5=
EXTT6=
EXTT7=
EXTT8=
EXTT9=
EXTT10=
EXTT11=
EXTT12=
EXTT13=
EXTT14=
PLAYORDER=
